<svg aria-roledescription="er" viewBox="0 0 741.528076171875 398" style="max-width: 741.528px; background-color: white;" xmlns:xlink="http://www.w3.org/1999/xlink" xmlns="http://www.w3.org/2000/svg" width="100%" id="mermaid-0"><style>#mermaid-0{font-family:"trebuchet ms",verdana,arial,sans-serif;font-size:16px;fill:#000000;}#mermaid-0 .error-icon{fill:#552222;}#mermaid-0 .error-text{fill:#552222;stroke:#552222;}#mermaid-0 .edge-thickness-normal{stroke-width:2px;}#mermaid-0 .edge-thickness-thick{stroke-width:3.5px;}#mermaid-0 .edge-pattern-solid{stroke-dasharray:0;}#mermaid-0 .edge-pattern-dashed{stroke-dasharray:3;}#mermaid-0 .edge-pattern-dotted{stroke-dasharray:2;}#mermaid-0 .marker{fill:#000000;stroke:#000000;}#mermaid-0 .marker.cross{stroke:#000000;}#mermaid-0 svg{font-family:"trebuchet ms",verdana,arial,sans-serif;font-size:16px;}#mermaid-0 .entityBox{fill:#cde498;stroke:#13540c;}#mermaid-0 .attributeBoxOdd{fill:#ffffff;stroke:#13540c;}#mermaid-0 .attributeBoxEven{fill:#f2f2f2;stroke:#13540c;}#mermaid-0 .relationshipLabelBox{fill:hsl(78.1578947368, 58.4615384615%, 84.5098039216%);opacity:0.7;background-color:hsl(78.1578947368, 58.4615384615%, 84.5098039216%);}#mermaid-0 .relationshipLabelBox rect{opacity:0.5;}#mermaid-0 .relationshipLine{stroke:#000000;}#mermaid-0 .entityTitleText{text-anchor:middle;font-size:18px;fill:#000000;}#mermaid-0 :root{--mermaid-font-family:"trebuchet ms",verdana,arial,sans-serif;}</style><g/><defs><marker orient="auto" markerHeight="18" markerWidth="18" refY="9" refX="0" id="ONLY_ONE_START"><path d="M9,0 L9,18 M15,0 L15,18" fill="none" stroke="gray"/></marker></defs><defs><marker orient="auto" markerHeight="18" markerWidth="18" refY="9" refX="18" id="ONLY_ONE_END"><path d="M3,0 L3,18 M9,0 L9,18" fill="none" stroke="gray"/></marker></defs><defs><marker orient="auto" markerHeight="18" markerWidth="30" refY="9" refX="0" id="ZERO_OR_ONE_START"><circle r="6" cy="9" cx="21" fill="white" stroke="gray"/><path d="M9,0 L9,18" fill="none" stroke="gray"/></marker></defs><defs><marker orient="auto" markerHeight="18" markerWidth="30" refY="9" refX="30" id="ZERO_OR_ONE_END"><circle r="6" cy="9" cx="9" fill="white" stroke="gray"/><path d="M21,0 L21,18" fill="none" stroke="gray"/></marker></defs><defs><marker orient="auto" markerHeight="36" markerWidth="45" refY="18" refX="18" id="ONE_OR_MORE_START"><path d="M0,18 Q 18,0 36,18 Q 18,36 0,18 M42,9 L42,27" fill="none" stroke="gray"/></marker></defs><defs><marker orient="auto" markerHeight="36" markerWidth="45" refY="18" refX="27" id="ONE_OR_MORE_END"><path d="M3,9 L3,27 M9,18 Q27,0 45,18 Q27,36 9,18" fill="none" stroke="gray"/></marker></defs><defs><marker orient="auto" markerHeight="36" markerWidth="57" refY="18" refX="18" id="ZERO_OR_MORE_START"><circle r="6" cy="18" cx="48" fill="white" stroke="gray"/><path d="M0,18 Q18,0 36,18 Q18,36 0,18" fill="none" stroke="gray"/></marker></defs><defs><marker orient="auto" markerHeight="36" markerWidth="57" refY="18" refX="39" id="ZERO_OR_MORE_END"><circle r="6" cy="18" cx="9" fill="white" stroke="gray"/><path d="M21,18 Q39,0 57,18 Q39,36 21,18" fill="none" stroke="gray"/></marker></defs><path style="stroke: gray; fill: none;" marker-start="url(#ZERO_OR_MORE_START)" marker-end="url(#ONLY_ONE_END)" d="M105.29412841796875,191L105.29412841796875,199.33333333333334C105.29412841796875,207.66666666666666,105.29412841796875,224.33333333333334,138.55774434407553,244.1606912982556C171.82136027018228,263.98804926317786,238.34859212239584,286.97609852635577,271.6122080485026,298.4701231579447L304.8758239746094,309.9641477895337" class="er relationshipLine"/><path style="stroke: gray; fill: none;" marker-start="url(#ZERO_OR_MORE_START)" marker-end="url(#ONLY_ONE_END)" d="M375.88238525390625,191L375.88238525390625,199.33333333333334C375.88238525390625,207.66666666666666,375.88238525390625,224.33333333333334,375.88238525390625,241C375.88238525390625,257.6666666666667,375.88238525390625,274.3333333333333,375.88238525390625,282.6666666666667L375.88238525390625,291" class="er relationshipLine"/><path style="stroke: gray; fill: none;" marker-start="url(#ZERO_OR_MORE_START)" marker-end="url(#ONLY_ONE_END)" d="M603.7926230342625,138.5L594.6113909807005,155.58333333333334C585.4301589271386,172.66666666666666,567.0676948200146,206.83333333333334,540.9170820698381,233.09738054115277C514.7664693196615,259.3614277489722,480.8277079264323,277.72285549794435,463.8583272298177,286.90356937243047L446.8889465332031,296.0842832469165" class="er relationshipLine"/><path style="stroke: gray; fill: none;" marker-start="url(#ZERO_OR_MORE_START)" marker-end="url(#ONLY_ONE_END)" d="M633.7051979430927,138.5L640.009010981223,155.58333333333334C646.3128240193535,172.66666666666666,658.9204500956142,206.83333333333334,665.2242631337446,234C671.528076171875,261.1666666666667,671.528076171875,281.3333333333333,671.528076171875,291.4166666666667L671.528076171875,301.5" class="er relationshipLine"/><g transform="translate(304.8758239746094,291 )" id="entity-User-a2821e82-7976-4078-9661-9597b0170b63"><rect height="87" width="142.01312255859375" y="0" x="0" class="er entityBox"/><text style="dominant-baseline: middle; text-anchor: middle; font-size: 12px;" transform="translate(71.00656127929688,12)" y="0" x="0" id="text-entity-User-a2821e82-7976-4078-9661-9597b0170b63" class="er entityLabel">User</text><rect height="21" width="36.947052001953125" y="24" x="0" class="er attributeBoxOdd"/><text style="dominant-baseline: middle; font-size: 10.2px;" transform="translate(5,34.5)" y="0" x="0" id="text-entity-User-a2821e82-7976-4078-9661-9597b0170b63-attr-1-type" class="er entityLabel">Int</text><rect height="21" width="35.81787109375" y="24" x="36.947052001953125" class="er attributeBoxOdd"/><text style="dominant-baseline: middle; font-size: 10.2px;" transform="translate(41.947052001953125,34.5)" y="0" x="0" id="text-entity-User-a2821e82-7976-4078-9661-9597b0170b63-attr-1-name" class="er entityLabel">id</text><rect height="21" width="23.79498291015625" y="24" x="72.76492309570312" class="er attributeBoxOdd"/><text style="dominant-baseline: middle; font-size: 10.2px;" transform="translate(77.76492309570312,34.5)" y="0" x="0" id="text-entity-User-a2821e82-7976-4078-9661-9597b0170b63-attr-1-key" class="er entityLabel">PK</text><rect height="21" width="45.453216552734375" y="24" x="96.55990600585938" class="er attributeBoxOdd"/><text style="dominant-baseline: middle; font-size: 10.2px;" transform="translate(101.55990600585938,34.5)" y="0" x="0" id="text-entity-User-a2821e82-7976-4078-9661-9597b0170b63-attr-1-comment" class="er entityLabel"/><rect height="21" width="36.947052001953125" y="45" x="0" class="er attributeBoxEven"/><text style="dominant-baseline: middle; font-size: 10.2px;" transform="translate(5,55.5)" y="0" x="0" id="text-entity-User-a2821e82-7976-4078-9661-9597b0170b63-attr-2-type" class="er entityLabel">String</text><rect height="21" width="35.81787109375" y="45" x="36.947052001953125" class="er attributeBoxEven"/><text style="dominant-baseline: middle; font-size: 10.2px;" transform="translate(41.947052001953125,55.5)" y="0" x="0" id="text-entity-User-a2821e82-7976-4078-9661-9597b0170b63-attr-2-name" class="er entityLabel">email</text><rect height="21" width="23.79498291015625" y="45" x="72.76492309570312" class="er attributeBoxEven"/><text style="dominant-baseline: middle; font-size: 10.2px;" transform="translate(77.76492309570312,55.5)" y="0" x="0" id="text-entity-User-a2821e82-7976-4078-9661-9597b0170b63-attr-2-key" class="er entityLabel"/><rect height="21" width="45.453216552734375" y="45" x="96.55990600585938" class="er attributeBoxEven"/><text style="dominant-baseline: middle; font-size: 10.2px;" transform="translate(101.55990600585938,55.5)" y="0" x="0" id="text-entity-User-a2821e82-7976-4078-9661-9597b0170b63-attr-2-comment" class="er entityLabel"/><rect height="21" width="36.947052001953125" y="66" x="0" class="er attributeBoxOdd"/><text style="dominant-baseline: middle; font-size: 10.2px;" transform="translate(5,76.5)" y="0" x="0" id="text-entity-User-a2821e82-7976-4078-9661-9597b0170b63-attr-3-type" class="er entityLabel">String</text><rect height="21" width="35.81787109375" y="66" x="36.947052001953125" class="er attributeBoxOdd"/><text style="dominant-baseline: middle; font-size: 10.2px;" transform="translate(41.947052001953125,76.5)" y="0" x="0" id="text-entity-User-a2821e82-7976-4078-9661-9597b0170b63-attr-3-name" class="er entityLabel">name</text><rect height="21" width="23.79498291015625" y="66" x="72.76492309570312" class="er attributeBoxOdd"/><text style="dominant-baseline: middle; font-size: 10.2px;" transform="translate(77.76492309570312,76.5)" y="0" x="0" id="text-entity-User-a2821e82-7976-4078-9661-9597b0170b63-attr-3-key" class="er entityLabel"/><rect height="21" width="45.453216552734375" y="66" x="96.55990600585938" class="er attributeBoxOdd"/><text style="dominant-baseline: middle; font-size: 10.2px;" transform="translate(101.55990600585938,76.5)" y="0" x="0" id="text-entity-User-a2821e82-7976-4078-9661-9597b0170b63-attr-3-comment" class="er entityLabel">nullable</text></g><g transform="translate(20,20 )" id="entity-Post-07924708-f0a9-4b02-b0e6-ef996b42a3d3"><rect height="171" width="170.5882568359375" y="0" x="0" class="er entityBox"/><text style="dominant-baseline: middle; text-anchor: middle; font-size: 12px;" transform="translate(85.29412841796875,12)" y="0" x="0" id="text-entity-Post-07924708-f0a9-4b02-b0e6-ef996b42a3d3" class="er entityLabel">Post</text><rect height="21" width="47.390625" y="24" x="0" class="er attributeBoxOdd"/><text style="dominant-baseline: middle; font-size: 10.2px;" transform="translate(5,34.5)" y="0" x="0" id="text-entity-Post-07924708-f0a9-4b02-b0e6-ef996b42a3d3-attr-1-type" class="er entityLabel">Int</text><rect height="21" width="53.949432373046875" y="24" x="47.390625" class="er attributeBoxOdd"/><text style="dominant-baseline: middle; font-size: 10.2px;" transform="translate(52.390625,34.5)" y="0" x="0" id="text-entity-Post-07924708-f0a9-4b02-b0e6-ef996b42a3d3-attr-1-name" class="er entityLabel">id</text><rect height="21" width="23.79498291015625" y="24" x="101.34005737304688" class="er attributeBoxOdd"/><text style="dominant-baseline: middle; font-size: 10.2px;" transform="translate(106.34005737304688,34.5)" y="0" x="0" id="text-entity-Post-07924708-f0a9-4b02-b0e6-ef996b42a3d3-attr-1-key" class="er entityLabel">PK</text><rect height="21" width="45.453216552734375" y="24" x="125.13504028320312" class="er attributeBoxOdd"/><text style="dominant-baseline: middle; font-size: 10.2px;" transform="translate(130.13504028320312,34.5)" y="0" x="0" id="text-entity-Post-07924708-f0a9-4b02-b0e6-ef996b42a3d3-attr-1-comment" class="er entityLabel"/><rect height="21" width="47.390625" y="45" x="0" class="er attributeBoxEven"/><text style="dominant-baseline: middle; font-size: 10.2px;" transform="translate(5,55.5)" y="0" x="0" id="text-entity-Post-07924708-f0a9-4b02-b0e6-ef996b42a3d3-attr-2-type" class="er entityLabel">String</text><rect height="21" width="53.949432373046875" y="45" x="47.390625" class="er attributeBoxEven"/><text style="dominant-baseline: middle; font-size: 10.2px;" transform="translate(52.390625,55.5)" y="0" x="0" id="text-entity-Post-07924708-f0a9-4b02-b0e6-ef996b42a3d3-attr-2-name" class="er entityLabel">title</text><rect height="21" width="23.79498291015625" y="45" x="101.34005737304688" class="er attributeBoxEven"/><text style="dominant-baseline: middle; font-size: 10.2px;" transform="translate(106.34005737304688,55.5)" y="0" x="0" id="text-entity-Post-07924708-f0a9-4b02-b0e6-ef996b42a3d3-attr-2-key" class="er entityLabel"/><rect height="21" width="45.453216552734375" y="45" x="125.13504028320312" class="er attributeBoxEven"/><text style="dominant-baseline: middle; font-size: 10.2px;" transform="translate(130.13504028320312,55.5)" y="0" x="0" id="text-entity-Post-07924708-f0a9-4b02-b0e6-ef996b42a3d3-attr-2-comment" class="er entityLabel"/><rect height="21" width="47.390625" y="66" x="0" class="er attributeBoxOdd"/><text style="dominant-baseline: middle; font-size: 10.2px;" transform="translate(5,76.5)" y="0" x="0" id="text-entity-Post-07924708-f0a9-4b02-b0e6-ef996b42a3d3-attr-3-type" class="er entityLabel">String</text><rect height="21" width="53.949432373046875" y="66" x="47.390625" class="er attributeBoxOdd"/><text style="dominant-baseline: middle; font-size: 10.2px;" transform="translate(52.390625,76.5)" y="0" x="0" id="text-entity-Post-07924708-f0a9-4b02-b0e6-ef996b42a3d3-attr-3-name" class="er entityLabel">content</text><rect height="21" width="23.79498291015625" y="66" x="101.34005737304688" class="er attributeBoxOdd"/><text style="dominant-baseline: middle; font-size: 10.2px;" transform="translate(106.34005737304688,76.5)" y="0" x="0" id="text-entity-Post-07924708-f0a9-4b02-b0e6-ef996b42a3d3-attr-3-key" class="er entityLabel"/><rect height="21" width="45.453216552734375" y="66" x="125.13504028320312" class="er attributeBoxOdd"/><text style="dominant-baseline: middle; font-size: 10.2px;" transform="translate(130.13504028320312,76.5)" y="0" x="0" id="text-entity-Post-07924708-f0a9-4b02-b0e6-ef996b42a3d3-attr-3-comment" class="er entityLabel">nullable</text><rect height="21" width="47.390625" y="87" x="0" class="er attributeBoxEven"/><text style="dominant-baseline: middle; font-size: 10.2px;" transform="translate(5,97.5)" y="0" x="0" id="text-entity-Post-07924708-f0a9-4b02-b0e6-ef996b42a3d3-attr-4-type" class="er entityLabel">Boolean</text><rect height="21" width="53.949432373046875" y="87" x="47.390625" class="er attributeBoxEven"/><text style="dominant-baseline: middle; font-size: 10.2px;" transform="translate(52.390625,97.5)" y="0" x="0" id="text-entity-Post-07924708-f0a9-4b02-b0e6-ef996b42a3d3-attr-4-name" class="er entityLabel">published</text><rect height="21" width="23.79498291015625" y="87" x="101.34005737304688" class="er attributeBoxEven"/><text style="dominant-baseline: middle; font-size: 10.2px;" transform="translate(106.34005737304688,97.5)" y="0" x="0" id="text-entity-Post-07924708-f0a9-4b02-b0e6-ef996b42a3d3-attr-4-key" class="er entityLabel"/><rect height="21" width="45.453216552734375" y="87" x="125.13504028320312" class="er attributeBoxEven"/><text style="dominant-baseline: middle; font-size: 10.2px;" transform="translate(130.13504028320312,97.5)" y="0" x="0" id="text-entity-Post-07924708-f0a9-4b02-b0e6-ef996b42a3d3-attr-4-comment" class="er entityLabel"/><rect height="21" width="47.390625" y="108" x="0" class="er attributeBoxOdd"/><text style="dominant-baseline: middle; font-size: 10.2px;" transform="translate(5,118.5)" y="0" x="0" id="text-entity-Post-07924708-f0a9-4b02-b0e6-ef996b42a3d3-attr-5-type" class="er entityLabel">Int</text><rect height="21" width="53.949432373046875" y="108" x="47.390625" class="er attributeBoxOdd"/><text style="dominant-baseline: middle; font-size: 10.2px;" transform="translate(52.390625,118.5)" y="0" x="0" id="text-entity-Post-07924708-f0a9-4b02-b0e6-ef996b42a3d3-attr-5-name" class="er entityLabel">authorId</text><rect height="21" width="23.79498291015625" y="108" x="101.34005737304688" class="er attributeBoxOdd"/><text style="dominant-baseline: middle; font-size: 10.2px;" transform="translate(106.34005737304688,118.5)" y="0" x="0" id="text-entity-Post-07924708-f0a9-4b02-b0e6-ef996b42a3d3-attr-5-key" class="er entityLabel"/><rect height="21" width="45.453216552734375" y="108" x="125.13504028320312" class="er attributeBoxOdd"/><text style="dominant-baseline: middle; font-size: 10.2px;" transform="translate(130.13504028320312,118.5)" y="0" x="0" id="text-entity-Post-07924708-f0a9-4b02-b0e6-ef996b42a3d3-attr-5-comment" class="er entityLabel"/><rect height="21" width="47.390625" y="129" x="0" class="er attributeBoxEven"/><text style="dominant-baseline: middle; font-size: 10.2px;" transform="translate(5,139.5)" y="0" x="0" id="text-entity-Post-07924708-f0a9-4b02-b0e6-ef996b42a3d3-attr-6-type" class="er entityLabel">Int</text><rect height="21" width="53.949432373046875" y="129" x="47.390625" class="er attributeBoxEven"/><text style="dominant-baseline: middle; font-size: 10.2px;" transform="translate(52.390625,139.5)" y="0" x="0" id="text-entity-Post-07924708-f0a9-4b02-b0e6-ef996b42a3d3-attr-6-name" class="er entityLabel">views</text><rect height="21" width="23.79498291015625" y="129" x="101.34005737304688" class="er attributeBoxEven"/><text style="dominant-baseline: middle; font-size: 10.2px;" transform="translate(106.34005737304688,139.5)" y="0" x="0" id="text-entity-Post-07924708-f0a9-4b02-b0e6-ef996b42a3d3-attr-6-key" class="er entityLabel"/><rect height="21" width="45.453216552734375" y="129" x="125.13504028320312" class="er attributeBoxEven"/><text style="dominant-baseline: middle; font-size: 10.2px;" transform="translate(130.13504028320312,139.5)" y="0" x="0" id="text-entity-Post-07924708-f0a9-4b02-b0e6-ef996b42a3d3-attr-6-comment" class="er entityLabel"/><rect height="21" width="47.390625" y="150" x="0" class="er attributeBoxOdd"/><text style="dominant-baseline: middle; font-size: 10.2px;" transform="translate(5,160.5)" y="0" x="0" id="text-entity-Post-07924708-f0a9-4b02-b0e6-ef996b42a3d3-attr-7-type" class="er entityLabel">Int</text><rect height="21" width="53.949432373046875" y="150" x="47.390625" class="er attributeBoxOdd"/><text style="dominant-baseline: middle; font-size: 10.2px;" transform="translate(52.390625,160.5)" y="0" x="0" id="text-entity-Post-07924708-f0a9-4b02-b0e6-ef996b42a3d3-attr-7-name" class="er entityLabel">likes</text><rect height="21" width="23.79498291015625" y="150" x="101.34005737304688" class="er attributeBoxOdd"/><text style="dominant-baseline: middle; font-size: 10.2px;" transform="translate(106.34005737304688,160.5)" y="0" x="0" id="text-entity-Post-07924708-f0a9-4b02-b0e6-ef996b42a3d3-attr-7-key" class="er entityLabel"/><rect height="21" width="45.453216552734375" y="150" x="125.13504028320312" class="er attributeBoxOdd"/><text style="dominant-baseline: middle; font-size: 10.2px;" transform="translate(130.13504028320312,160.5)" y="0" x="0" id="text-entity-Post-07924708-f0a9-4b02-b0e6-ef996b42a3d3-attr-7-comment" class="er entityLabel"/></g><g transform="translate(290.5882568359375,20 )" id="entity-Profile-ebb8162b-5c28-46aa-a9cd-b56436265a5a"><rect height="171" width="170.5882568359375" y="0" x="0" class="er entityBox"/><text style="dominant-baseline: middle; text-anchor: middle; font-size: 12px;" transform="translate(85.29412841796875,12)" y="0" x="0" id="text-entity-Profile-ebb8162b-5c28-46aa-a9cd-b56436265a5a" class="er entityLabel">Profile</text><rect height="21" width="47.390625" y="24" x="0" class="er attributeBoxOdd"/><text style="dominant-baseline: middle; font-size: 10.2px;" transform="translate(5,34.5)" y="0" x="0" id="text-entity-Profile-ebb8162b-5c28-46aa-a9cd-b56436265a5a-attr-1-type" class="er entityLabel">Int</text><rect height="21" width="53.949432373046875" y="24" x="47.390625" class="er attributeBoxOdd"/><text style="dominant-baseline: middle; font-size: 10.2px;" transform="translate(52.390625,34.5)" y="0" x="0" id="text-entity-Profile-ebb8162b-5c28-46aa-a9cd-b56436265a5a-attr-1-name" class="er entityLabel">id</text><rect height="21" width="23.79498291015625" y="24" x="101.34005737304688" class="er attributeBoxOdd"/><text style="dominant-baseline: middle; font-size: 10.2px;" transform="translate(106.34005737304688,34.5)" y="0" x="0" id="text-entity-Profile-ebb8162b-5c28-46aa-a9cd-b56436265a5a-attr-1-key" class="er entityLabel">PK</text><rect height="21" width="45.453216552734375" y="24" x="125.13504028320312" class="er attributeBoxOdd"/><text style="dominant-baseline: middle; font-size: 10.2px;" transform="translate(130.13504028320312,34.5)" y="0" x="0" id="text-entity-Profile-ebb8162b-5c28-46aa-a9cd-b56436265a5a-attr-1-comment" class="er entityLabel"/><rect height="21" width="47.390625" y="45" x="0" class="er attributeBoxEven"/><text style="dominant-baseline: middle; font-size: 10.2px;" transform="translate(5,55.5)" y="0" x="0" id="text-entity-Profile-ebb8162b-5c28-46aa-a9cd-b56436265a5a-attr-2-type" class="er entityLabel">String</text><rect height="21" width="53.949432373046875" y="45" x="47.390625" class="er attributeBoxEven"/><text style="dominant-baseline: middle; font-size: 10.2px;" transform="translate(52.390625,55.5)" y="0" x="0" id="text-entity-Profile-ebb8162b-5c28-46aa-a9cd-b56436265a5a-attr-2-name" class="er entityLabel">title</text><rect height="21" width="23.79498291015625" y="45" x="101.34005737304688" class="er attributeBoxEven"/><text style="dominant-baseline: middle; font-size: 10.2px;" transform="translate(106.34005737304688,55.5)" y="0" x="0" id="text-entity-Profile-ebb8162b-5c28-46aa-a9cd-b56436265a5a-attr-2-key" class="er entityLabel"/><rect height="21" width="45.453216552734375" y="45" x="125.13504028320312" class="er attributeBoxEven"/><text style="dominant-baseline: middle; font-size: 10.2px;" transform="translate(130.13504028320312,55.5)" y="0" x="0" id="text-entity-Profile-ebb8162b-5c28-46aa-a9cd-b56436265a5a-attr-2-comment" class="er entityLabel"/><rect height="21" width="47.390625" y="66" x="0" class="er attributeBoxOdd"/><text style="dominant-baseline: middle; font-size: 10.2px;" transform="translate(5,76.5)" y="0" x="0" id="text-entity-Profile-ebb8162b-5c28-46aa-a9cd-b56436265a5a-attr-3-type" class="er entityLabel">String</text><rect height="21" width="53.949432373046875" y="66" x="47.390625" class="er attributeBoxOdd"/><text style="dominant-baseline: middle; font-size: 10.2px;" transform="translate(52.390625,76.5)" y="0" x="0" id="text-entity-Profile-ebb8162b-5c28-46aa-a9cd-b56436265a5a-attr-3-name" class="er entityLabel">content</text><rect height="21" width="23.79498291015625" y="66" x="101.34005737304688" class="er attributeBoxOdd"/><text style="dominant-baseline: middle; font-size: 10.2px;" transform="translate(106.34005737304688,76.5)" y="0" x="0" id="text-entity-Profile-ebb8162b-5c28-46aa-a9cd-b56436265a5a-attr-3-key" class="er entityLabel"/><rect height="21" width="45.453216552734375" y="66" x="125.13504028320312" class="er attributeBoxOdd"/><text style="dominant-baseline: middle; font-size: 10.2px;" transform="translate(130.13504028320312,76.5)" y="0" x="0" id="text-entity-Profile-ebb8162b-5c28-46aa-a9cd-b56436265a5a-attr-3-comment" class="er entityLabel">nullable</text><rect height="21" width="47.390625" y="87" x="0" class="er attributeBoxEven"/><text style="dominant-baseline: middle; font-size: 10.2px;" transform="translate(5,97.5)" y="0" x="0" id="text-entity-Profile-ebb8162b-5c28-46aa-a9cd-b56436265a5a-attr-4-type" class="er entityLabel">Boolean</text><rect height="21" width="53.949432373046875" y="87" x="47.390625" class="er attributeBoxEven"/><text style="dominant-baseline: middle; font-size: 10.2px;" transform="translate(52.390625,97.5)" y="0" x="0" id="text-entity-Profile-ebb8162b-5c28-46aa-a9cd-b56436265a5a-attr-4-name" class="er entityLabel">published</text><rect height="21" width="23.79498291015625" y="87" x="101.34005737304688" class="er attributeBoxEven"/><text style="dominant-baseline: middle; font-size: 10.2px;" transform="translate(106.34005737304688,97.5)" y="0" x="0" id="text-entity-Profile-ebb8162b-5c28-46aa-a9cd-b56436265a5a-attr-4-key" class="er entityLabel"/><rect height="21" width="45.453216552734375" y="87" x="125.13504028320312" class="er attributeBoxEven"/><text style="dominant-baseline: middle; font-size: 10.2px;" transform="translate(130.13504028320312,97.5)" y="0" x="0" id="text-entity-Profile-ebb8162b-5c28-46aa-a9cd-b56436265a5a-attr-4-comment" class="er entityLabel"/><rect height="21" width="47.390625" y="108" x="0" class="er attributeBoxOdd"/><text style="dominant-baseline: middle; font-size: 10.2px;" transform="translate(5,118.5)" y="0" x="0" id="text-entity-Profile-ebb8162b-5c28-46aa-a9cd-b56436265a5a-attr-5-type" class="er entityLabel">Int</text><rect height="21" width="53.949432373046875" y="108" x="47.390625" class="er attributeBoxOdd"/><text style="dominant-baseline: middle; font-size: 10.2px;" transform="translate(52.390625,118.5)" y="0" x="0" id="text-entity-Profile-ebb8162b-5c28-46aa-a9cd-b56436265a5a-attr-5-name" class="er entityLabel">authorId</text><rect height="21" width="23.79498291015625" y="108" x="101.34005737304688" class="er attributeBoxOdd"/><text style="dominant-baseline: middle; font-size: 10.2px;" transform="translate(106.34005737304688,118.5)" y="0" x="0" id="text-entity-Profile-ebb8162b-5c28-46aa-a9cd-b56436265a5a-attr-5-key" class="er entityLabel"/><rect height="21" width="45.453216552734375" y="108" x="125.13504028320312" class="er attributeBoxOdd"/><text style="dominant-baseline: middle; font-size: 10.2px;" transform="translate(130.13504028320312,118.5)" y="0" x="0" id="text-entity-Profile-ebb8162b-5c28-46aa-a9cd-b56436265a5a-attr-5-comment" class="er entityLabel"/><rect height="21" width="47.390625" y="129" x="0" class="er attributeBoxEven"/><text style="dominant-baseline: middle; font-size: 10.2px;" transform="translate(5,139.5)" y="0" x="0" id="text-entity-Profile-ebb8162b-5c28-46aa-a9cd-b56436265a5a-attr-6-type" class="er entityLabel">Int</text><rect height="21" width="53.949432373046875" y="129" x="47.390625" class="er attributeBoxEven"/><text style="dominant-baseline: middle; font-size: 10.2px;" transform="translate(52.390625,139.5)" y="0" x="0" id="text-entity-Profile-ebb8162b-5c28-46aa-a9cd-b56436265a5a-attr-6-name" class="er entityLabel">views</text><rect height="21" width="23.79498291015625" y="129" x="101.34005737304688" class="er attributeBoxEven"/><text style="dominant-baseline: middle; font-size: 10.2px;" transform="translate(106.34005737304688,139.5)" y="0" x="0" id="text-entity-Profile-ebb8162b-5c28-46aa-a9cd-b56436265a5a-attr-6-key" class="er entityLabel"/><rect height="21" width="45.453216552734375" y="129" x="125.13504028320312" class="er attributeBoxEven"/><text style="dominant-baseline: middle; font-size: 10.2px;" transform="translate(130.13504028320312,139.5)" y="0" x="0" id="text-entity-Profile-ebb8162b-5c28-46aa-a9cd-b56436265a5a-attr-6-comment" class="er entityLabel"/><rect height="21" width="47.390625" y="150" x="0" class="er attributeBoxOdd"/><text style="dominant-baseline: middle; font-size: 10.2px;" transform="translate(5,160.5)" y="0" x="0" id="text-entity-Profile-ebb8162b-5c28-46aa-a9cd-b56436265a5a-attr-7-type" class="er entityLabel">Int</text><rect height="21" width="53.949432373046875" y="150" x="47.390625" class="er attributeBoxOdd"/><text style="dominant-baseline: middle; font-size: 10.2px;" transform="translate(52.390625,160.5)" y="0" x="0" id="text-entity-Profile-ebb8162b-5c28-46aa-a9cd-b56436265a5a-attr-7-name" class="er entityLabel">likes</text><rect height="21" width="23.79498291015625" y="150" x="101.34005737304688" class="er attributeBoxOdd"/><text style="dominant-baseline: middle; font-size: 10.2px;" transform="translate(106.34005737304688,160.5)" y="0" x="0" id="text-entity-Profile-ebb8162b-5c28-46aa-a9cd-b56436265a5a-attr-7-key" class="er entityLabel"/><rect height="21" width="45.453216552734375" y="150" x="125.13504028320312" class="er attributeBoxOdd"/><text style="dominant-baseline: middle; font-size: 10.2px;" transform="translate(130.13504028320312,160.5)" y="0" x="0" id="text-entity-Profile-ebb8162b-5c28-46aa-a9cd-b56436265a5a-attr-7-comment" class="er entityLabel"/></g><g transform="translate(621.528076171875,301.5 )" id="entity-Product-28953f3e-bd4a-4150-93c3-729b14d1a2d0"><rect height="66" width="100" y="0" x="0" class="er entityBox"/><text style="dominant-baseline: middle; text-anchor: middle; font-size: 12px;" transform="translate(50,12)" y="0" x="0" id="text-entity-Product-28953f3e-bd4a-4150-93c3-729b14d1a2d0" class="er entityLabel">Product</text><rect height="21" width="41.303873697916664" y="24" x="0" class="er attributeBoxOdd"/><text style="dominant-baseline: middle; font-size: 10.2px;" transform="translate(5,34.5)" y="0" x="0" id="text-entity-Product-28953f3e-bd4a-4150-93c3-729b14d1a2d0-attr-1-type" class="er entityLabel">Int</text><rect height="21" width="30.544321695963543" y="24" x="41.303873697916664" class="er attributeBoxOdd"/><text style="dominant-baseline: middle; font-size: 10.2px;" transform="translate(46.303873697916664,34.5)" y="0" x="0" id="text-entity-Product-28953f3e-bd4a-4150-93c3-729b14d1a2d0-attr-1-name" class="er entityLabel">id</text><rect height="21" width="28.151804606119793" y="24" x="71.8481953938802" class="er attributeBoxOdd"/><text style="dominant-baseline: middle; font-size: 10.2px;" transform="translate(76.8481953938802,34.5)" y="0" x="0" id="text-entity-Product-28953f3e-bd4a-4150-93c3-729b14d1a2d0-attr-1-key" class="er entityLabel">PK</text><rect height="21" width="41.303873697916664" y="45" x="0" class="er attributeBoxEven"/><text style="dominant-baseline: middle; font-size: 10.2px;" transform="translate(5,55.5)" y="0" x="0" id="text-entity-Product-28953f3e-bd4a-4150-93c3-729b14d1a2d0-attr-2-type" class="er entityLabel">String</text><rect height="21" width="30.544321695963543" y="45" x="41.303873697916664" class="er attributeBoxEven"/><text style="dominant-baseline: middle; font-size: 10.2px;" transform="translate(46.303873697916664,55.5)" y="0" x="0" id="text-entity-Product-28953f3e-bd4a-4150-93c3-729b14d1a2d0-attr-2-name" class="er entityLabel">title</text><rect height="21" width="28.151804606119793" y="45" x="71.8481953938802" class="er attributeBoxEven"/><text style="dominant-baseline: middle; font-size: 10.2px;" transform="translate(76.8481953938802,55.5)" y="0" x="0" id="text-entity-Product-28953f3e-bd4a-4150-93c3-729b14d1a2d0-attr-2-key" class="er entityLabel"/></g><g transform="translate(561.176513671875,72.5 )" id="entity-FavoriteProducts-e0953950-7d79-4dba-84ac-7b80cb2181d3"><rect height="66" width="120.703125" y="0" x="0" class="er entityBox"/><text style="dominant-baseline: middle; text-anchor: middle; font-size: 12px;" transform="translate(60.3515625,12)" y="0" x="0" id="text-entity-FavoriteProducts-e0953950-7d79-4dba-84ac-7b80cb2181d3" class="er entityLabel">FavoriteProducts</text><rect height="21" width="29.03009033203125" y="24" x="0" class="er attributeBoxOdd"/><text style="dominant-baseline: middle; font-size: 10.2px;" transform="translate(5,34.5)" y="0" x="0" id="text-entity-FavoriteProducts-e0953950-7d79-4dba-84ac-7b80cb2181d3-attr-1-type" class="er entityLabel">Int</text><rect height="21" width="60.34417724609375" y="24" x="29.03009033203125" class="er attributeBoxOdd"/><text style="dominant-baseline: middle; font-size: 10.2px;" transform="translate(34.03009033203125,34.5)" y="0" x="0" id="text-entity-FavoriteProducts-e0953950-7d79-4dba-84ac-7b80cb2181d3-attr-1-name" class="er entityLabel">userId</text><rect height="21" width="31.328857421875" y="24" x="89.374267578125" class="er attributeBoxOdd"/><text style="dominant-baseline: middle; font-size: 10.2px;" transform="translate(94.374267578125,34.5)" y="0" x="0" id="text-entity-FavoriteProducts-e0953950-7d79-4dba-84ac-7b80cb2181d3-attr-1-key" class="er entityLabel">PK</text><rect height="21" width="29.03009033203125" y="45" x="0" class="er attributeBoxEven"/><text style="dominant-baseline: middle; font-size: 10.2px;" transform="translate(5,55.5)" y="0" x="0" id="text-entity-FavoriteProducts-e0953950-7d79-4dba-84ac-7b80cb2181d3-attr-2-type" class="er entityLabel">Int</text><rect height="21" width="60.34417724609375" y="45" x="29.03009033203125" class="er attributeBoxEven"/><text style="dominant-baseline: middle; font-size: 10.2px;" transform="translate(34.03009033203125,55.5)" y="0" x="0" id="text-entity-FavoriteProducts-e0953950-7d79-4dba-84ac-7b80cb2181d3-attr-2-name" class="er entityLabel">productId</text><rect height="21" width="31.328857421875" y="45" x="89.374267578125" class="er attributeBoxEven"/><text style="dominant-baseline: middle; font-size: 10.2px;" transform="translate(94.374267578125,55.5)" y="0" x="0" id="text-entity-FavoriteProducts-e0953950-7d79-4dba-84ac-7b80cb2181d3-attr-2-key" class="er entityLabel">PK</text></g><rect height="14" width="34.03125" y="261.102783203125" x="172.11209106445312" class="er relationshipLabelBox"/><text style="text-anchor: middle; dominant-baseline: middle; font-size: 12px;" y="268.102783203125" x="189.12771606445312" id="rel1" class="er relationshipLabel">author</text><rect height="14" width="34.03125" y="234" x="358.86676025390625" class="er relationshipLabelBox"/><text style="text-anchor: middle; dominant-baseline: middle; font-size: 12px;" y="241" x="375.88238525390625" id="rel2" class="er relationshipLabel">author</text><rect height="14" width="23.34765625" y="225.95272827148438" x="529.3865966796875" class="er relationshipLabelBox"/><text style="text-anchor: middle; dominant-baseline: middle; font-size: 12px;" y="232.95272827148438" x="541.0604248046875" id="rel3" class="er relationshipLabel">user</text><rect height="14" width="40.69140625" y="211.20370483398438" x="640.76904296875" class="er relationshipLabelBox"/><text style="text-anchor: middle; dominant-baseline: middle; font-size: 12px;" y="218.20370483398438" x="661.11474609375" id="rel4" class="er relationshipLabel">product</text></svg>